<mxfile host="app.diagrams.net" modified="2021-04-03T12:28:41.647Z" agent="5.0 (Macintosh; Intel Mac OS X 10_15_7) AppleWebKit/537.36 (KHTML, like Gecko) Chrome/86.0.4240.193 Safari/537.36" etag="MHeojUsB1WMbwNnVF5Gy" version="14.5.6" type="github">
  <diagram id="IF9NxtJMAHbxQqZ7-Hld" name="Page-1">
    <mxGraphModel dx="946" dy="536" grid="1" gridSize="10" guides="1" tooltips="1" connect="1" arrows="1" fold="1" page="1" pageScale="1" pageWidth="827" pageHeight="1169" math="0" shadow="0">
      <root>
        <mxCell id="0" />
        <mxCell id="1" parent="0" />
        <mxCell id="wGv9wGTK3sPFm_DvQHJG-1" value="" style="shape=table;html=1;whiteSpace=wrap;startSize=0;container=1;collapsible=0;childLayout=tableLayout;" vertex="1" parent="1">
          <mxGeometry x="90" y="150" width="660" height="40" as="geometry" />
        </mxCell>
        <mxCell id="wGv9wGTK3sPFm_DvQHJG-2" value="" style="shape=partialRectangle;html=1;whiteSpace=wrap;collapsible=0;dropTarget=0;pointerEvents=0;fillColor=none;top=0;left=0;bottom=0;right=0;points=[[0,0.5],[1,0.5]];portConstraint=eastwest;" vertex="1" parent="wGv9wGTK3sPFm_DvQHJG-1">
          <mxGeometry width="660" height="40" as="geometry" />
        </mxCell>
        <mxCell id="wGv9wGTK3sPFm_DvQHJG-3" value="a" style="shape=partialRectangle;html=1;whiteSpace=wrap;connectable=0;fillColor=none;top=0;left=0;bottom=0;right=0;overflow=hidden;" vertex="1" parent="wGv9wGTK3sPFm_DvQHJG-2">
          <mxGeometry width="60" height="40" as="geometry" />
        </mxCell>
        <mxCell id="wGv9wGTK3sPFm_DvQHJG-4" value="b" style="shape=partialRectangle;html=1;whiteSpace=wrap;connectable=0;fillColor=none;top=0;left=0;bottom=0;right=0;overflow=hidden;" vertex="1" parent="wGv9wGTK3sPFm_DvQHJG-2">
          <mxGeometry x="60" width="60" height="40" as="geometry" />
        </mxCell>
        <mxCell id="wGv9wGTK3sPFm_DvQHJG-5" value="c" style="shape=partialRectangle;html=1;whiteSpace=wrap;connectable=0;fillColor=none;top=0;left=0;bottom=0;right=0;overflow=hidden;" vertex="1" parent="wGv9wGTK3sPFm_DvQHJG-2">
          <mxGeometry x="120" width="60" height="40" as="geometry" />
        </mxCell>
        <mxCell id="wGv9wGTK3sPFm_DvQHJG-14" value="d" style="shape=partialRectangle;html=1;whiteSpace=wrap;connectable=0;fillColor=none;top=0;left=0;bottom=0;right=0;overflow=hidden;" vertex="1" parent="wGv9wGTK3sPFm_DvQHJG-2">
          <mxGeometry x="180" width="60" height="40" as="geometry" />
        </mxCell>
        <mxCell id="wGv9wGTK3sPFm_DvQHJG-17" value="e" style="shape=partialRectangle;html=1;whiteSpace=wrap;connectable=0;fillColor=none;top=0;left=0;bottom=0;right=0;overflow=hidden;" vertex="1" parent="wGv9wGTK3sPFm_DvQHJG-2">
          <mxGeometry x="240" width="60" height="40" as="geometry" />
        </mxCell>
        <mxCell id="wGv9wGTK3sPFm_DvQHJG-20" value="f" style="shape=partialRectangle;html=1;whiteSpace=wrap;connectable=0;fillColor=none;top=0;left=0;bottom=0;right=0;overflow=hidden;" vertex="1" parent="wGv9wGTK3sPFm_DvQHJG-2">
          <mxGeometry x="300" width="60" height="40" as="geometry" />
        </mxCell>
        <mxCell id="wGv9wGTK3sPFm_DvQHJG-23" value="f" style="shape=partialRectangle;html=1;whiteSpace=wrap;connectable=0;fillColor=none;top=0;left=0;bottom=0;right=0;overflow=hidden;" vertex="1" parent="wGv9wGTK3sPFm_DvQHJG-2">
          <mxGeometry x="360" width="60" height="40" as="geometry" />
        </mxCell>
        <mxCell id="wGv9wGTK3sPFm_DvQHJG-26" value="g" style="shape=partialRectangle;html=1;whiteSpace=wrap;connectable=0;fillColor=none;top=0;left=0;bottom=0;right=0;overflow=hidden;" vertex="1" parent="wGv9wGTK3sPFm_DvQHJG-2">
          <mxGeometry x="420" width="60" height="40" as="geometry" />
        </mxCell>
        <mxCell id="wGv9wGTK3sPFm_DvQHJG-29" value="g" style="shape=partialRectangle;html=1;whiteSpace=wrap;connectable=0;fillColor=none;top=0;left=0;bottom=0;right=0;overflow=hidden;" vertex="1" parent="wGv9wGTK3sPFm_DvQHJG-2">
          <mxGeometry x="480" width="60" height="40" as="geometry" />
        </mxCell>
        <mxCell id="wGv9wGTK3sPFm_DvQHJG-32" value="h" style="shape=partialRectangle;html=1;whiteSpace=wrap;connectable=0;fillColor=none;top=0;left=0;bottom=0;right=0;overflow=hidden;" vertex="1" parent="wGv9wGTK3sPFm_DvQHJG-2">
          <mxGeometry x="540" width="60" height="40" as="geometry" />
        </mxCell>
        <mxCell id="wGv9wGTK3sPFm_DvQHJG-38" value="i" style="shape=partialRectangle;html=1;whiteSpace=wrap;connectable=0;fillColor=none;top=0;left=0;bottom=0;right=0;overflow=hidden;" vertex="1" parent="wGv9wGTK3sPFm_DvQHJG-2">
          <mxGeometry x="600" width="60" height="40" as="geometry" />
        </mxCell>
        <mxCell id="wGv9wGTK3sPFm_DvQHJG-41" value="" style="shape=table;html=1;whiteSpace=wrap;startSize=0;container=1;collapsible=0;childLayout=tableLayout;" vertex="1" parent="1">
          <mxGeometry x="90" y="260" width="660" height="40" as="geometry" />
        </mxCell>
        <mxCell id="wGv9wGTK3sPFm_DvQHJG-42" value="" style="shape=partialRectangle;html=1;whiteSpace=wrap;collapsible=0;dropTarget=0;pointerEvents=0;fillColor=none;top=0;left=0;bottom=0;right=0;points=[[0,0.5],[1,0.5]];portConstraint=eastwest;" vertex="1" parent="wGv9wGTK3sPFm_DvQHJG-41">
          <mxGeometry width="660" height="40" as="geometry" />
        </mxCell>
        <mxCell id="wGv9wGTK3sPFm_DvQHJG-43" value="a 10" style="shape=partialRectangle;html=1;whiteSpace=wrap;connectable=0;fillColor=none;top=0;left=0;bottom=0;right=0;overflow=hidden;" vertex="1" parent="wGv9wGTK3sPFm_DvQHJG-42">
          <mxGeometry width="60" height="40" as="geometry" />
        </mxCell>
        <mxCell id="wGv9wGTK3sPFm_DvQHJG-44" value="b 11&amp;nbsp;" style="shape=partialRectangle;html=1;whiteSpace=wrap;connectable=0;fillColor=none;top=0;left=0;bottom=0;right=0;overflow=hidden;" vertex="1" parent="wGv9wGTK3sPFm_DvQHJG-42">
          <mxGeometry x="60" width="60" height="40" as="geometry" />
        </mxCell>
        <mxCell id="wGv9wGTK3sPFm_DvQHJG-45" value="c 9&amp;nbsp;" style="shape=partialRectangle;html=1;whiteSpace=wrap;connectable=0;fillColor=none;top=0;left=0;bottom=0;right=0;overflow=hidden;" vertex="1" parent="wGv9wGTK3sPFm_DvQHJG-42">
          <mxGeometry x="120" width="60" height="40" as="geometry" />
        </mxCell>
        <mxCell id="wGv9wGTK3sPFm_DvQHJG-46" value="d 8" style="shape=partialRectangle;html=1;whiteSpace=wrap;connectable=0;fillColor=none;top=0;left=0;bottom=0;right=0;overflow=hidden;" vertex="1" parent="wGv9wGTK3sPFm_DvQHJG-42">
          <mxGeometry x="180" width="60" height="40" as="geometry" />
        </mxCell>
        <mxCell id="wGv9wGTK3sPFm_DvQHJG-47" value="e 5" style="shape=partialRectangle;html=1;whiteSpace=wrap;connectable=0;fillColor=none;top=0;left=0;bottom=0;right=0;overflow=hidden;" vertex="1" parent="wGv9wGTK3sPFm_DvQHJG-42">
          <mxGeometry x="240" width="60" height="40" as="geometry" />
        </mxCell>
        <mxCell id="wGv9wGTK3sPFm_DvQHJG-48" value="f 3" style="shape=partialRectangle;html=1;whiteSpace=wrap;connectable=0;fillColor=none;top=0;left=0;bottom=0;right=0;overflow=hidden;" vertex="1" parent="wGv9wGTK3sPFm_DvQHJG-42">
          <mxGeometry x="300" width="60" height="40" as="geometry" />
        </mxCell>
        <mxCell id="wGv9wGTK3sPFm_DvQHJG-49" value="f 4" style="shape=partialRectangle;html=1;whiteSpace=wrap;connectable=0;fillColor=none;top=0;left=0;bottom=0;right=0;overflow=hidden;" vertex="1" parent="wGv9wGTK3sPFm_DvQHJG-42">
          <mxGeometry x="360" width="60" height="40" as="geometry" />
        </mxCell>
        <mxCell id="wGv9wGTK3sPFm_DvQHJG-50" value="g 7" style="shape=partialRectangle;html=1;whiteSpace=wrap;connectable=0;fillColor=none;top=0;left=0;bottom=0;right=0;overflow=hidden;" vertex="1" parent="wGv9wGTK3sPFm_DvQHJG-42">
          <mxGeometry x="420" width="60" height="40" as="geometry" />
        </mxCell>
        <mxCell id="wGv9wGTK3sPFm_DvQHJG-51" value="g 8" style="shape=partialRectangle;html=1;whiteSpace=wrap;connectable=0;fillColor=none;top=0;left=0;bottom=0;right=0;overflow=hidden;" vertex="1" parent="wGv9wGTK3sPFm_DvQHJG-42">
          <mxGeometry x="480" width="60" height="40" as="geometry" />
        </mxCell>
        <mxCell id="wGv9wGTK3sPFm_DvQHJG-52" value="h 12" style="shape=partialRectangle;html=1;whiteSpace=wrap;connectable=0;fillColor=none;top=0;left=0;bottom=0;right=0;overflow=hidden;" vertex="1" parent="wGv9wGTK3sPFm_DvQHJG-42">
          <mxGeometry x="540" width="60" height="40" as="geometry" />
        </mxCell>
        <mxCell id="wGv9wGTK3sPFm_DvQHJG-53" value="i 11" style="shape=partialRectangle;html=1;whiteSpace=wrap;connectable=0;fillColor=none;top=0;left=0;bottom=0;right=0;overflow=hidden;" vertex="1" parent="wGv9wGTK3sPFm_DvQHJG-42">
          <mxGeometry x="600" width="60" height="40" as="geometry" />
        </mxCell>
      </root>
    </mxGraphModel>
  </diagram>
</mxfile>
